<?xml version="1.0" encoding="UTF-8"?>
<svg id="Layer_1" xmlns="http://www.w3.org/2000/svg" xmlns:xlink="http://www.w3.org/1999/xlink" viewBox="0 0 216 360">
  <defs>
    <style>
      .cls-1 {
        fill: #4b7235;
      }

      .cls-2 {
        fill: url(#linear-gradient);
      }
    </style>
    <linearGradient id="linear-gradient" x1="108" y1="0" x2="108" y2="297.81" gradientUnits="userSpaceOnUse">
      <stop offset="0" stop-color="#d98627"/>
      <stop offset="1" stop-color="#905d25"/>
    </linearGradient>
  </defs>
  <g id="C">
    <path class="cls-1" d="M206.02,304.25c-1.61-.54-2.82-1.87-4.94-1.39-1.29-.72-2.58-.91-4,.2-5.04-.07-5.39,7.11-9.64,8.73-2.88,1.18-7.97,1.67-9.41-1.59,0-.2-.23-.6-.47-.79-2.33-.98-2.18-3.1-3.06-4.96-3.05-6.58-3.52-15.01-2.12-22.21,0-.99-.47-1.98,0-2.78.47-.99,1.18-1.59.71-2.58,0-.2.23-.4.23-.4,1.44-5.3,4.17-11.55,10.82-11.5,2.26.13,3.05-.29,4.47,1.59,1.41.59,1.88,1.39,2.35,2.58,0,.59,1.18.99.71,1.98-.07,1.14,2.74,2.99,3.76,3.37,5.63,1.61,13.67.6,13.64-6.35.71-1.39-.23-2.38-.94-3.57-.47-.59-.94-1.39-.94-2.18-.8-2.15-2.69-3.05-3.76-5.16,0-.2-.24-.4-.47-.79-2.35-1.35-4.04-3.28-6.82-3.97-2.12-.79-4-1.39-6.11-2.18-1.67-.12-4.19-.81-6.11-.4-.84.54-2.12-.56-2.82-.2-2.49,1.55-6.31.19-8.94,2.18-1.18.2-2.35.2-2.82,1.39-2.77,1.87-6.73,3.08-8,6.54-1.35,1.68-2.35,4.76-2.59,4.96-3.57,7.97-3.8,28.98-3.29,34.71-.24,3.51,1.17,7.03,1.88,10.51.47,1.19,3.43,8.06,5.41,9.92,4.28,3.68,9.18,6.41,14.82,7.54,3.78-.59,7.02,1.44,10.58-.2,0-.2.47-.2.71,0,4.88.22,9.04-3.26,13.17-5.55.71-1,7.5-8.07,7.29-12.69.67-1.34-.19-4.27-3.29-4.76Z"/>
    <path class="cls-1" d="M215.9,235.43c.44-2.33-.73-4.12-2.12-5.75-4.4-3.75-11.28-.87-16.93-1.98-2.11-.81-4.07.86-6.11,0-3.17-.52-5.54.87-8.7,0-2.32-1-4.61,1.33-6.82,0-.24-.2-.71-.4-.71-.2-6.22,1.42-17.88-2.63-19.52,5.95-.47,1.79-.71,3.77.71,5.36.47.4.47.79.47,1.19.84,2.36,3.86,2.24,6.11,2.97,2.38.34,4.78-.77,7.29.2,1.68-1.03,3.99-.12,6.11,0,3.04-.95,6.13.18,9.17-.4,4.06.65,7.66-.18,11.76,0,.94-.2,1.88-.4,2.59.4.74-.02,2.37-.5,3.06-.4,1.63.42,2.8.25,4.47-.2,4.68.7,10.17-1.64,9.17-7.14Z"/>
  </g>
  <path id="R" class="cls-1" d="M130.64,348.13c-4.49-5.36-9.74-3.55-15.8-3.38-2.36-1.46-5.56-.13-8.02-1.79-3.02-.03-5.53-1.66-8.25-2.78-1.89-.26-2.72-1.25-4.01-2.19-6.23-2.89-9.04-8.01-13.68-12.53-.24,0-.24-.4-.47-.6-1.42-3.57-3.38-7.2-5.19-10.54-.68-2.34-1.37-4.84-1.65-7.36-.47-.6-.47-.99-.24-1.39v-.99c-2.14-3.85-1.71-8.53-3.77-12.53-1.81-4.19-4.09-5.76-.94-10.34,1.87-2.13,5.61-3.62,6.6-6.36.22-2.33,2.58-3.29,2.83-5.57.84-2.45,2.74-4.88,1.41-7.76.96-4.94-.8-14.15-4.72-17.7v-.2c-1.25-5.62-9.24-8.88-13.68-12.13-.71-.4-6.99-2.36-9.43-3.18-6.28.36-44.1-1.39-45.75-.4-1.8.98-3.72,1.24-4.01,3.38-2.76,2.04-2.73,86.6-.47,92.28,4.14,7.13,19.16,3.9,16.51-5.17.71-1.19.94-19.29.71-20.68.64-1.51,1.18-3.72,2.59-4.77,2.38-.45,11.98-2.11,14.86-1.79,2.33.92,4.91,0,6.84.99,2.93-.27,4.51,1.37,6.84,2.78.94.8,1.89,1.39,2.12,2.39.47,1.19,2.12,1.99,1.89,3.58-.24.2.24.4.47.6.94.8.94,1.79.71,2.78-.4,1.07.5,2.15.47,3.18,1.32,6.85,3.79,13.32,6.84,19.49,10.98,18.96,26.99,29.78,49.05,31.82,4.14-.77,8.46,1.57,12.73.2,5.56-.42,8.59-6.69,6.6-11.34ZM62.49,259.63c-1.58,12.29-14.16,15.91-24.76,16.71-3.08,1.79-7.47-.51-10.85.6-1.65-.99-3.77-.2-5.19-1.39-.94-.99-2.36-1.79-2.59-2.98-1.19-1.97.26-3.84-.94-5.57-.36-4.75.7-9.66.47-14.52-.8-1.88.19-3.25.47-5.17.34-2.96,4.27-4.29,7.07-4.18,1.99.25,4.19-.83,6.37-.4,1.26.47,2.85-.13,4.01.4,2.83-.2,5.66.99,8.49.2,3.01.87,6.36,1.6,8.96,3.38,2.91,1.53,5.32,4.2,7.07,6.96-.04,2.09,1.08,4.07,1.41,5.97Z"/>
  <path id="Tree" class="cls-2" d="M133.35,296.98c-5.79-2.46-10.98-5.78-13.54-11.37-1.04-2.27-1.8-4.79-1.8-7.93,0-12.07-.35-28.72-.91-47.76l4.94-9.22s9.6-4.14,15.99-4.14,17.31-6.76,20.96-6.76-18.47-5.89-18.47-5.89c0,0-4.32-6.77,8.45-5.09,10.72,1.41,28.54-4.28,29.29-6.14,4.01.21,10.69.24,17.16-.6,12.76-1.71-25.09-12.33-36.69-12.93-11.59-.57-24.37-9.04-9.76-9.86,14.58-.84,27.56-4.29,9.34-5.95-18.25-1.74-36.55-19.16-18.33-18.29,18.25.85,17.91-3.37,6.38-7.7-8.82-3.27,8.08-14.47,22.66-15.3,14.58-.88-42.47-10.63-32.13-11.9,35.8-4.41-25.06-8.39,6.87-12.56,14.48-1.88-27.18-9.45-13.47-16.51,9.82-5.07-17.23-13.48-2.17-14.27,15.06-.91.33-6.55-8.3-12.32-8.68-5.77-1.83-7.62,8.19-6.73,10.03.85-17.5-7.51-17.76-10.94-.26-3.42,9.58-4.28,9.58-4.28,0,0-7.51-1.34-11.06-4.65l-.74-27.88-.74,27.88c-3.53,3.32-11.04,4.65-11.04,4.65,0,0,9.82.86,9.57,4.28-.27,3.43-27.82,11.41-17.76,10.94,7.06-.33,15.85,7.14,5.91,10.13-18.52,5.6-30.38,7.13-2.41,12.54,14.82,2.87-36.05,11.02-5.77,11.59,18.88.36-33.71,13.89-19.44,17,11.66,2.54,23.28,8.78,18.98,12.06-8.31,6.36-52.86,10.09-38.29,10.97,14.59.83,31.49,12.02,22.65,15.3-11.52,4.33-39.15,11.98-20.91,11.13,18.23-.86,8.98,14.86-9.27,16.6-18.23,1.67,27.59,4.21,42.16,5.04,14.59.82-12.76,8.46-24.36,9.03-11.58.6-49.43,11.22-36.68,12.93,6.48.85,13.16.81,17.16.6.76,1.87,18.57,7.55,29.31,6.14,12.76-1.69,8.43,5.09,8.43,5.09,0,0-22.1,5.89-18.46,5.89s14.59,6.76,20.95,6.76,15.99,4.14,15.99,4.14l4.94,9.22c-.56,19.04-.91,35.69-.91,47.76,0,3.36-.78,6-1.83,8.36-2.55,5.64-7.65,8.84-13.31,11.17,16.83,1.09,33.66.47,50.5-.24Z"/>
</svg>